<?xml version="1.0" encoding="UTF-8" standalone="no"?>
<svg
   version="1.1"
   id="Layer_1"
   viewBox="0 0 32 32"
   fill="#ffffff"
   width="32"
   height="32"
   xmlns="http://www.w3.org/2000/svg">
  <g id="seaside-town">
    <!-- house roof -->
    <path d="M 6 15 L 16 7 L 26 15 L 26 16 L 6 16 Z" />
    <!-- house body -->
    <rect x="8" y="16" width="16" height="9" />
    <!-- door -->
    <rect x="14.4" y="19" width="3.2" height="6" fill="#5d5d5d" />
    <!-- waves -->
    <path d="M 4 27 q 2 -2 4 0 q 2 2 4 0 q 2 -2 4 0 q 2 2 4 0 q 2 -2 4 0 q 2 2 4 0"
          fill="none" stroke="#ffffff" stroke-width="1.4" />
    <path d="M 4 29.4 q 2 -2 4 0 q 2 2 4 0 q 2 -2 4 0 q 2 2 4 0 q 2 -2 4 0 q 2 2 4 0"
          fill="none" stroke="#ffffff" stroke-width="1.4" />
  </g>
</svg>